<?xml version="1.0" encoding="UTF-8"?><svg width="349" height="45" viewBox="0 0 349 45" version="1.1" xmlns="http://www.w3.org/2000/svg" aria-labelledby="logo-nvy-title" aria-description="logo-nvy-desc"><title>blue tsys logo</title><desc>blue tsys logo</desc><g fill-rule="nonzero" stroke="none" stroke-width="1" fill="none"><g fill="#003C71"><path d="M0 5.39h28.51v8.51h-8.78v25.87h-11V13.9H0zM74 6.25l6.47 10.91 6.35-10.91H99l-13.36 19V39H75.15V25.24L61.9 6.25zM123.7 0a.76.76 0 0 0-.76.76v7.06c-.32-.18-.66-.37-1-.55a22.79 22.79 0 0 0-10-2.09c-6 0-11.52 1.9-13.68 6.73a10.12 10.12 0 0 0-.94 4.23c0 6.92 6 8.78 9 9.56 1.36.33 7.45 1.39 8.62 1.81 1.83.61 1.83 1.82 1.83 2 0 2.37-4.12 2.46-5 2.46a15.09 15.09 0 0 1-4.64-.74 7.3 7.3 0 0 1-4.59-3.58l-8 5.11a17.14 17.14 0 0 0 9.19 6.24 27.71 27.71 0 0 0 7.68 1c1.67 0 7.37 0 11.53-3.24v7.31a.76.76 0 0 0 1.52 0V.76a.76.76 0 0 0-.76-.76zm-11.35 17.72c-2.86-.51-4.55-.93-4.55-2.51 0-1.58 2-2.13 3.75-2.13a15.38 15.38 0 0 1 6.14 1.2 6.78 6.78 0 0 1 2.53 2.14l2.72-2.26v6.61c-2.8-1.7-6.69-2.39-10.59-3.05zM48.47 17.72c-2.86-.51-4.54-.93-4.54-2.51 0-1.58 2-2.13 3.74-2.13a15.32 15.32 0 0 1 6.14 1.2 6.62 6.62 0 0 1 2.53 2.14L62.91 11A16 16 0 0 0 58 7.27a22.82 22.82 0 0 0-10-2.09c-4.87 0-9.49 1.28-12.19 4.38V.76a.76.76 0 1 0-1.52 0v43.31a.76.76 0 0 0 1.52 0v-6.68a18.58 18.58 0 0 0 4 1.64 27.81 27.81 0 0 0 7.68 1c1.83 0 8.48 0 12.66-4.22a10.31 10.31 0 0 0 3-7.38c-.01-8.16-7.32-9.43-14.68-10.71zM47.91 32a15.09 15.09 0 0 1-4.64-.74 7.25 7.25 0 0 1-4.59-3.58l-2.82 1.79v-7.06a14.16 14.16 0 0 0 6.57 3.29c1.36.33 7.45 1.39 8.62 1.81 1.83.61 1.83 1.82 1.83 2 0 2.42-4.13 2.49-4.97 2.49z"/></g><g fill="#53565A"><path d="M169.29 39.93l5.8-9.53h1l1.78 9.53h-.94l-.47-2.58h-4.74l-1.54 2.58h-.89zm7-3.37l-.92-5.37-3.24 5.37h4.16zM190.36 33.32a1.66 1.66 0 0 0-.06-1 1.47 1.47 0 0 0-1.44-.74c-2.32 0-3.24 2.17-3.55 3.63a3.42 3.42 0 0 0 .25 2.56 2.2 2.2 0 0 0 2.06.82 5.34 5.34 0 0 0 1.6-.18l.43-2h-1.85l.34-1.58H192l-1 4.76a10.87 10.87 0 0 1-3.6.53c-2.18 0-3.19-.53-3.78-1.27a4.32 4.32 0 0 1-.51-3.56 6.11 6.11 0 0 1 6.1-5.19 3.52 3.52 0 0 1 3 1.2 2.55 2.55 0 0 1 .26 2l-2.11.02zM194.8 30.39h1.95l-2 9.54h-1.95zM201 33.11c2.42 0 3.11 1.63 2.72 3.49a4.26 4.26 0 0 1-4.26 3.56c-1.9 0-3.15-1.17-2.65-3.51a4.19 4.19 0 0 1 4.19-3.54zm-1.18 5.69c.86 0 1.55-.51 1.92-2.28.19-.88.28-2.11-1-2.11s-1.79 1.65-1.92 2.26c-.3 1.49.07 2.13 1.03 2.13h-.03zM206.46 30.41h2l-.78 3.66a2.79 2.79 0 0 1 2.08-.9c1.62 0 2.63 1.28 2.15 3.52-.53 2.5-2.16 3.37-3.5 3.37A1.75 1.75 0 0 1 206.6 39c-.06.21-.14.53-.27.94h-1.89l2.02-9.53zm2.45 4.07c-1.43 0-1.78 1.63-1.87 2.06-.32 1.51.17 2.24 1.05 2.24 1.35 0 1.7-1.68 1.78-2 .13-.55.45-2.3-.96-2.3zM216.57 39.93c.017-.306.06-.61.13-.91a2.78 2.78 0 0 1-2.22 1.06 1.82 1.82 0 0 1-1.55-.52 1.79 1.79 0 0 1-.27-1.47 2.92 2.92 0 0 1 1.85-2.09 7.56 7.56 0 0 1 2.72-.37 2.91 2.91 0 0 0 .1-.88.71.71 0 0 0-.76-.56 1.11 1.11 0 0 0-.81.37 1.26 1.26 0 0 0-.28.6h-1.91a2.38 2.38 0 0 1 1.09-1.57 4 4 0 0 1 2.13-.54 2.63 2.63 0 0 1 2.19.85 2.4 2.4 0 0 1 .12 1.64l-.56 2.68a8.12 8.12 0 0 0-.2 1.69l-1.77.02zm-2-2.06a.72.72 0 0 0 .75 1 1.39 1.39 0 0 0 .91-.38 3 3 0 0 0 .72-1.65c-1.19-.16-2.17.24-2.34 1.03h-.04zM221.94 30.39h1.95l-2 9.54h-2zM229.28 30.41h2.94c1.37 0 2.5.1 3.09 1.05a2.43 2.43 0 0 1 .2 1.78 3.85 3.85 0 0 1-1.75 2.53 4.63 4.63 0 0 1-2.26.45h-1.39l-.78 3.71h-2.08l2.03-9.52zm1.1 4.29h.82a1.89 1.89 0 0 0 2.2-1.45c.27-1.25-.82-1.25-1.4-1.25h-1l-.62 2.7zM239 39.93a4.5 4.5 0 0 1 .13-.91 2.78 2.78 0 0 1-2.22 1.06c-1 0-1.34-.27-1.55-.52a1.72 1.72 0 0 1-.27-1.47 2.89 2.89 0 0 1 1.84-2.09 7.56 7.56 0 0 1 2.72-.37 2.55 2.55 0 0 0 .09-.88.71.71 0 0 0-.75-.56 1.13 1.13 0 0 0-.82.37 1.23 1.23 0 0 0-.27.6H236a2.4 2.4 0 0 1 1.08-1.57 4 4 0 0 1 2.14-.54 2.66 2.66 0 0 1 2.19.85 2.39 2.39 0 0 1 .11 1.64l-.52 2.7a7.5 7.5 0 0 0-.2 1.69H239zm-2-2.06a.73.73 0 0 0 .75 1 1.35 1.35 0 0 0 .91-.38 2.92 2.92 0 0 0 .72-1.65c-1.21-.16-2.19.24-2.38 1.03zM244.92 33.26l.49 4.62 2.47-4.62h1.94l-3.91 6.55-1.37 2.65h-2L244 40l-1.14-6.69zM250.6 34.52c.09-.43.15-.83.2-1.26h1.88l-.11.86a2.91 2.91 0 0 1 2.27-1c1.53 0 1.77.94 1.83 1.25a2.8 2.8 0 0 1 2.4-1.24 1.71 1.71 0 0 1 1.81 1.07 3.77 3.77 0 0 1-.09 2l-.8 3.76h-2l.84-3.92c.15-.71.21-1.51-.81-1.51-1.17 0-1.43 1.1-1.64 2.09l-.71 3.34h-2l.84-4c.11-.52.29-1.47-.79-1.47a1.57 1.57 0 0 0-1.47 1.51l-.84 3.92h-2l1.19-5.4zM264 37.09c-.09.44-.38 1.78 1 1.78a1.4 1.4 0 0 0 1.36-.92h1.78a2.87 2.87 0 0 1-.94 1.45 3.93 3.93 0 0 1-2.5.78 2.75 2.75 0 0 1-2.17-.83 3.14 3.14 0 0 1-.31-2.6 4.67 4.67 0 0 1 2.06-3.16 3.93 3.93 0 0 1 2-.55 2.24 2.24 0 0 1 2.35 1.61 4.78 4.78 0 0 1-.13 2.44H264zm2.74-1.23c.07-.3.29-1.49-.84-1.49a1.72 1.72 0 0 0-1.57 1.49h2.41zM270.4 34.45s.16-.75.22-1.21h1.87l-.16 1a3 3 0 0 1 2.41-1.16 1.58 1.58 0 0 1 1.77 1.25 5.81 5.81 0 0 1-.24 2l-.77 3.61h-2l.88-4.15a1.52 1.52 0 0 0 .05-.72.79.79 0 0 0-.83-.57 1.54 1.54 0 0 0-1.13.52 2.27 2.27 0 0 0-.45 1l-.83 3.91h-2l1.21-5.48zM281.21 39.83a6.22 6.22 0 0 1-1.56.22c-2 0-1.7-1.25-1.58-1.8l.77-3.65h-1.28l.28-1.3h1.28l.27-1.3 2.1-.72-.43 2h1.58l-.28 1.3h-1.58l-.64 3c-.11.61-.19 1 .68 1 .22.016.44.016.66 0l-.27 1.25zM284.18 38c-.07.42.09.91.91.91a1.14 1.14 0 0 0 1.2-.79c.06-.3 0-.54-.76-.75l-1.15-.37c-.51-.16-1.58-.49-1.29-1.85.29-1.36 1.63-2.08 3.35-2.08 1.38 0 2.35.63 2.12 2h-1.78c.1-.74-.48-.79-.78-.79a1 1 0 0 0-1.07.66c-.09.45.22.54.77.7l1.13.33c1.14.33 1.57 1 1.38 1.86-.24 1.15-1.48 2.29-3.55 2.29a2.49 2.49 0 0 1-2.11-.81 1.71 1.71 0 0 1-.21-1.31h1.84zM300.52 32.63c.09-1.16-.81-1.64-1.89-1.64-2.44 0-3.65 2.22-4.07 4.17-.42 1.95-.15 4.17 2.3 4.17a2.88 2.88 0 0 0 2.71-1.71h.92a4.1 4.1 0 0 1-3.8 2.5c-2.89 0-3.61-2.32-3.05-5s2.28-5 5.16-5c1.55 0 2.88.72 2.65 2.43l-.93.08zM308.09 36.61a4.13 4.13 0 0 1-3.84 3.51c-2.11 0-2.71-1.76-2.34-3.51a4.11 4.11 0 0 1 3.83-3.5c2.11 0 2.72 1.76 2.35 3.5zm-2.5-2.78c-1.6 0-2.56 1.56-2.82 2.78-.26 1.22 0 2.79 1.64 2.79s2.56-1.56 2.82-2.79c.26-1.23-.04-2.78-1.64-2.78zM311 34.28a2.91 2.91 0 0 1 2.33-1.2 1.69 1.69 0 0 1 1.84 1.45 3.55 3.55 0 0 1 2.59-1.45c2.16 0 1.93 1.91 1.77 2.67l-.88 4.15h-.8l.91-4.28c.25-1.15-.27-1.82-1.35-1.82a2.6 2.6 0 0 0-2.41 2.31l-.81 3.82h-.79l.91-4.28c.24-1.15-.27-1.82-1.36-1.82a2.59 2.59 0 0 0-2.38 2.28l-.81 3.82H309l1.09-5.14c.11-.51.18-1 .25-1.49h.82l-.16.98zM320.88 42.46h-.79l1.62-7.67c.13-.51.19-1 .26-1.49h.81l-.16 1a3.33 3.33 0 0 1 2.52-1.2c2 0 2.34 1.76 2 3.48-.34 1.72-1.5 3.53-3.43 3.53a2.12 2.12 0 0 1-2-1.22l-.83 3.57zm2.9-3.06c1.52 0 2.26-1.68 2.52-2.9.26-1.22.05-2.67-1.45-2.67s-2.41 1.28-2.7 2.63c-.29 1.35-.09 2.94 1.63 2.94zM332.94 35.26c.15-1.09-.33-1.43-1.27-1.43a1.72 1.72 0 0 0-1.86 1.17H329a2.8 2.8 0 0 1 2.88-1.87c1.47 0 2.23.67 1.88 2.19l-.66 3.14c-.13.51-.18 1-.25 1.49H332l.18-1-.06.09a3.12 3.12 0 0 1-2.3 1.08 1.6 1.6 0 0 1-1.77-2 2.7 2.7 0 0 1 1.74-1.91 9.67 9.67 0 0 1 3.06-.31l.09-.64zm-2.86 4.14c1.73 0 2.36-1.43 2.58-2.81-1.13 0-3.44-.17-3.79 1.49-.19.92.41 1.32 1.21 1.32zM335.59 39.93h-.79l1.09-5.14c.11-.51.18-1 .25-1.49h.86l-.17 1a2.91 2.91 0 0 1 2.33-1.2c2.16 0 1.93 1.91 1.77 2.67l-.93 4.16h-.79l.9-4.28c.25-1.15-.27-1.82-1.35-1.82a2.6 2.6 0 0 0-2.39 2.28l-.78 3.82zM343.3 33.3l1.05 5.54 3.4-5.54h.85l-5.6 9.16h-.87l1.55-2.53-1.34-6.63z"/></g></g></svg>